<svg width="60" height="60" viewBox="0 0 60 60" fill="none" xmlns="http://www.w3.org/2000/svg">
<rect width="60" height="60" rx="11" fill="#2C2F3E"/>
<circle cx="30" cy="30" r="21" fill="#2C2F3E"/>
<path d="M9 30C9 38.9653 14.6192 46.6198 22.5275 49.6315C22.335 47.9918 22.1303 45.288 22.5713 43.391C22.951 41.76 25.023 32.9995 25.023 32.9995C25.023 32.9995 24.3982 31.7482 24.3982 29.895C24.3982 26.99 26.0818 24.82 28.18 24.82C29.965 24.82 30.826 26.1588 30.826 27.7635C30.826 29.5573 29.6833 32.2382 29.0935 34.725C28.6018 36.8057 30.1383 38.5032 32.1893 38.5032C35.9045 38.5032 38.7622 34.585 38.7622 28.929C38.7622 23.9222 35.1642 20.424 30.028 20.424C24.0815 20.424 20.5903 24.8847 20.5903 29.496C20.5903 31.2932 21.2815 33.2182 22.146 34.2665C22.2197 34.3457 22.2718 34.4425 22.2972 34.5476C22.3227 34.6527 22.3206 34.7626 22.2912 34.8668C22.132 35.5283 21.7785 36.9475 21.7103 37.238C21.6175 37.6195 21.4075 37.7018 21.0102 37.5163C18.3992 36.3018 16.7683 32.485 16.7683 29.419C16.7683 22.8233 21.558 16.7683 30.5793 16.7683C37.8313 16.7683 43.468 21.936 43.468 28.8415C43.468 36.0463 38.9267 41.8457 32.6197 41.8457C30.5005 41.8457 28.5107 40.7432 27.8282 39.443C27.8282 39.443 26.78 43.4365 26.5263 44.413C26.0328 46.31 24.6642 48.711 23.8155 50.0743C25.772 50.6763 27.8475 51 30 51C41.5972 51 51 41.5972 51 30C51 18.4028 41.5972 9 30 9C18.4028 9 9 18.4028 9 30Z" fill="white"/>
</svg>
