<svg width="60" height="60" viewBox="0 0 60 60" fill="none" xmlns="http://www.w3.org/2000/svg">
<rect width="60" height="60" rx="11" fill="#2C2F3E"/>
<path d="M28.1249 9H31.2076C31.4816 9 31.6186 9.15185 31.6186 9.45555V49.5441C31.6186 49.8478 31.4816 49.9996 31.2076 49.9996H28.1249C27.8509 49.9996 27.7139 49.8478 27.7139 49.5441V9.45555C27.7139 9.15185 27.8509 9 28.1249 9Z" fill="white"/>
<path d="M10.5966 27.5479H48.7358C49.0385 27.5479 49.1898 27.6849 49.1898 27.9589V31.0416C49.1898 31.3156 49.0385 31.4526 48.7358 31.4526H10.5966C10.2939 31.4526 10.1426 31.3156 10.1426 31.0416V27.9589C10.1426 27.6849 10.2939 27.5479 10.5966 27.5479Z" fill="white"/>
</svg>
