<svg width="60" height="60" viewBox="0 0 60 60" fill="none" xmlns="http://www.w3.org/2000/svg">
<rect width="60" height="60" rx="11" fill="white"/>
<path fill-rule="evenodd" clip-rule="evenodd" d="M39.6229 34.1685C39.0989 33.9078 36.5298 32.6513 36.0516 32.4763C35.5733 32.303 35.2251 32.2173 34.8752 32.7388C34.527 33.2568 33.5265 34.4293 33.2223 34.7758C32.9163 35.124 32.6121 35.166 32.0898 34.907C31.5676 34.6445 29.883 34.0968 27.8872 32.3258C26.3345 30.9468 25.2847 29.244 24.9805 28.7225C24.6763 28.2028 24.9471 27.921 25.2091 27.662C25.4448 27.4293 25.7314 27.0548 25.9934 26.752C26.2554 26.4475 26.3416 26.2305 26.5156 25.8823C26.6915 25.5358 26.6036 25.233 26.4717 24.9723C26.3416 24.7115 25.2971 22.1513 24.861 21.1101C24.4372 20.0968 24.0064 20.2351 23.6863 20.2176C23.3804 20.2036 23.0322 20.2001 22.684 20.2001C22.3359 20.2001 21.7697 20.3296 21.2914 20.8511C20.8113 21.3708 19.4626 22.6291 19.4626 25.1893C19.4626 27.7478 21.3336 30.2205 21.5956 30.5688C21.8576 30.9153 25.2795 36.1688 30.5213 38.421C31.7698 38.9565 32.7422 39.2768 33.5001 39.5148C34.7521 39.912 35.8915 39.856 36.7919 39.7213C37.7942 39.5725 39.8832 38.463 40.3192 37.2485C40.7536 36.034 40.7536 34.9928 40.6235 34.7758C40.4933 34.5588 40.1452 34.4293 39.6212 34.1685H39.6229ZM30.0887 47.1238H30.0817C26.9683 47.1243 23.9121 46.2914 21.2333 44.7123L20.6003 44.3378L14.0203 46.0563L15.777 39.6723L15.3637 39.0178C13.6231 36.2604 12.702 33.0691 12.7068 29.8128C12.7103 20.2753 20.5071 12.5158 30.0958 12.5158C34.738 12.5158 39.1024 14.3183 42.3836 17.5873C44.002 19.1913 45.2848 21.0988 46.1577 23.1994C47.0306 25.2999 47.4763 27.5519 47.469 29.825C47.4655 39.3625 39.6686 47.1238 30.0887 47.1238V47.1238ZM44.8806 15.1041C42.9431 13.1632 40.6379 11.6243 38.0985 10.5765C35.5591 9.52868 32.836 8.99287 30.087 9.00007C18.5623 9.00007 9.17936 18.3363 9.17584 29.811C9.1705 33.4628 10.1331 37.0515 11.9665 40.2148L9 51L20.0851 48.1055C23.1516 49.7682 26.5879 50.6394 30.08 50.6395H30.0887C41.6134 50.6395 50.9964 41.3033 50.9999 29.8268C51.0084 27.092 50.472 24.3827 49.4216 21.8556C48.3712 19.3285 46.8278 17.0337 44.8806 15.1041" fill="#2C2F3E"/>
</svg>
