<svg width="18" height="19" viewBox="0 0 18 19" fill="none" xmlns="http://www.w3.org/2000/svg">
<path d="M14.5845 8.97119V10.0566C15.6469 10.5875 16.2642 11.2446 16.2642 11.8965C16.2642 13.3905 13.2583 14.5642 10.2844 14.8116C10.0129 14.834 9.81108 15.0723 9.83377 15.3435C9.85508 15.6043 10.08 15.8149 10.3656 15.7945C12.9543 15.5813 17.2504 14.4643 17.2504 11.8965C17.2504 10.4941 15.8782 9.52929 14.5845 8.97119V8.97119Z" fill="#2C2F3E"/>
<path d="M5.86686 13.1368C5.59298 12.8581 5.11699 12.9943 5.0334 13.3772L4.81548 14.3751C1.55105 13.4965 -0.0162504 11.6067 3.08586 10.0566V8.97119C-0.984674 10.7272 -0.345909 14.0254 4.60476 15.3399L4.4088 16.2371C4.32479 16.6218 4.70601 16.9472 5.07368 16.8001L7.5391 15.8139C7.86524 15.6835 7.95462 15.2619 7.70772 15.0105L5.86686 13.1368Z" fill="#2C2F3E"/>
<path d="M9.05113 2.62465C8.89908 2.53846 8.71282 2.53925 8.56149 2.62662L4.56445 4.9343C5.2414 5.32512 8.46623 7.18699 8.8341 7.39939L13.1052 4.92193L9.05113 2.62465Z" fill="#2C2F3E"/>
<path d="M4.0723 10.4035C4.0723 10.5797 4.16628 10.7424 4.31883 10.8305L8.3425 13.1536V8.2535L4.07227 5.78809V10.4035H4.0723Z" fill="#2C2F3E"/>
<path d="M13.5983 10.404V5.77637L9.32812 8.25333V13.154L13.3518 10.831C13.5044 10.7429 13.5983 10.5801 13.5983 10.404Z" fill="#2C2F3E"/>
</svg>
