<svg width="15" height="15" viewBox="0 0 15 15" fill="none" xmlns="http://www.w3.org/2000/svg">
<mask id="path-1-inside-1_2490:25300" fill="white">
<path d="M14.6255 6.64157C14.6255 6.28122 14.4785 5.94181 14.2115 5.68589C13.9513 5.43643 13.6113 5.299 13.2544 5.299H2.71372V2.92292C2.71372 2.49753 2.86386 2.09938 3.1364 1.80193C3.39946 1.51499 3.74645 1.35696 4.11343 1.35696C4.78557 1.35696 5.29224 1.73988 5.45632 2.32819H5.25604C5.01941 2.32819 4.82756 2.52003 4.82756 2.75667C4.82756 2.99331 5.01941 3.18515 5.25604 3.18515H6.62719C6.86382 3.18515 7.05567 2.99331 7.05567 2.75667C7.05567 2.52003 6.86382 2.32819 6.62719 2.32819H6.33285C6.25109 1.85994 6.03514 1.44112 5.70378 1.12124C5.28878 0.72064 4.72398 0.5 4.11343 0.5C3.50338 0.5 2.93207 0.756689 2.50465 1.22293C2.08685 1.67892 1.85675 2.28266 1.85675 2.92292V5.299H1.37114C1.01419 5.299 0.674259 5.43643 0.413971 5.68589C0.146998 5.94181 0 6.28122 0 6.64157C0 7.00193 0.146998 7.34134 0.413971 7.59726C0.56691 7.74383 0.747444 7.85138 0.94266 7.91545V10.4425C0.94266 11.681 1.69727 12.7466 2.77085 13.2037V13.9543C2.77085 14.191 2.9627 14.3828 3.19933 14.3828C3.43597 14.3828 3.62781 14.191 3.62781 13.9543V13.4254C3.73111 13.4362 3.83591 13.4418 3.94203 13.4418H10.6835C10.7896 13.4418 10.8944 13.4362 10.9977 13.4254V13.9543C10.9977 14.191 11.1895 14.3828 11.4262 14.3828C11.6628 14.3828 11.8547 14.191 11.8547 13.9543V13.2037C12.9282 12.7466 13.6829 11.681 13.6829 10.4425V7.91545C13.8781 7.85138 14.0586 7.74386 14.2115 7.59726C14.4785 7.34134 14.6255 7.00193 14.6255 6.64157ZM12.8259 10.4425C12.8259 11.6238 11.8648 12.5849 10.6835 12.5849H3.94203C2.76071 12.5849 1.79962 11.6238 1.79962 10.4425V7.98415H12.8259V10.4425ZM13.2544 7.12719H1.37114C1.09723 7.12719 0.856964 6.90026 0.856964 6.64157C0.856964 6.38288 1.09723 6.15596 1.37114 6.15596H13.2544C13.5283 6.15596 13.7686 6.38288 13.7686 6.64157C13.7686 6.90026 13.5283 7.12719 13.2544 7.12719Z"/>
</mask>
<path d="M14.6255 6.64157C14.6255 6.28122 14.4785 5.94181 14.2115 5.68589C13.9513 5.43643 13.6113 5.299 13.2544 5.299H2.71372V2.92292C2.71372 2.49753 2.86386 2.09938 3.1364 1.80193C3.39946 1.51499 3.74645 1.35696 4.11343 1.35696C4.78557 1.35696 5.29224 1.73988 5.45632 2.32819H5.25604C5.01941 2.32819 4.82756 2.52003 4.82756 2.75667C4.82756 2.99331 5.01941 3.18515 5.25604 3.18515H6.62719C6.86382 3.18515 7.05567 2.99331 7.05567 2.75667C7.05567 2.52003 6.86382 2.32819 6.62719 2.32819H6.33285C6.25109 1.85994 6.03514 1.44112 5.70378 1.12124C5.28878 0.72064 4.72398 0.5 4.11343 0.5C3.50338 0.5 2.93207 0.756689 2.50465 1.22293C2.08685 1.67892 1.85675 2.28266 1.85675 2.92292V5.299H1.37114C1.01419 5.299 0.674259 5.43643 0.413971 5.68589C0.146998 5.94181 0 6.28122 0 6.64157C0 7.00193 0.146998 7.34134 0.413971 7.59726C0.56691 7.74383 0.747444 7.85138 0.94266 7.91545V10.4425C0.94266 11.681 1.69727 12.7466 2.77085 13.2037V13.9543C2.77085 14.191 2.9627 14.3828 3.19933 14.3828C3.43597 14.3828 3.62781 14.191 3.62781 13.9543V13.4254C3.73111 13.4362 3.83591 13.4418 3.94203 13.4418H10.6835C10.7896 13.4418 10.8944 13.4362 10.9977 13.4254V13.9543C10.9977 14.191 11.1895 14.3828 11.4262 14.3828C11.6628 14.3828 11.8547 14.191 11.8547 13.9543V13.2037C12.9282 12.7466 13.6829 11.681 13.6829 10.4425V7.91545C13.8781 7.85138 14.0586 7.74386 14.2115 7.59726C14.4785 7.34134 14.6255 7.00193 14.6255 6.64157ZM12.8259 10.4425C12.8259 11.6238 11.8648 12.5849 10.6835 12.5849H3.94203C2.76071 12.5849 1.79962 11.6238 1.79962 10.4425V7.98415H12.8259V10.4425ZM13.2544 7.12719H1.37114C1.09723 7.12719 0.856964 6.90026 0.856964 6.64157C0.856964 6.38288 1.09723 6.15596 1.37114 6.15596H13.2544C13.5283 6.15596 13.7686 6.38288 13.7686 6.64157C13.7686 6.90026 13.5283 7.12719 13.2544 7.12719Z" fill="#6B7280"/>
<path d="M14.2115 5.68589L14.9035 4.96399L14.9035 4.96393L14.2115 5.68589ZM2.71372 5.299H1.71372V6.299H2.71372V5.299ZM3.1364 1.80193L2.39929 1.12616L2.3991 1.12637L3.1364 1.80193ZM5.45632 2.32819V3.32819H6.77338L6.41955 2.05954L5.45632 2.32819ZM6.33285 2.32819L5.34775 2.50018L5.49232 3.32819H6.33285V2.32819ZM5.70378 1.12124L6.39831 0.401778L6.3983 0.401765L5.70378 1.12124ZM2.50465 1.22293L1.76752 0.547181L1.76734 0.547379L2.50465 1.22293ZM1.85675 5.299V6.299H2.85675V5.299H1.85675ZM0.413971 5.68589L-0.277962 4.96393L-0.278032 4.96399L0.413971 5.68589ZM0.413971 7.59726L-0.278032 8.31915L-0.277941 8.31924L0.413971 7.59726ZM0.94266 7.91545H1.94266V7.19118L1.25451 6.96532L0.94266 7.91545ZM2.77085 13.2037H3.77085V12.5426L3.1626 12.2836L2.77085 13.2037ZM3.62781 13.4254L3.73178 12.4308L2.62781 12.3154V13.4254H3.62781ZM10.9977 13.4254H11.9977V12.3154L10.8937 12.4308L10.9977 13.4254ZM11.8547 13.2037L11.4629 12.2836L10.8547 12.5426V13.2037H11.8547ZM13.6829 7.91545L13.371 6.96532L12.6829 7.19118V7.91545H13.6829ZM14.2115 7.59726L14.9035 8.31917L14.9035 8.31915L14.2115 7.59726ZM1.79962 7.98415V6.98415H0.799624V7.98415H1.79962ZM12.8259 7.98415H13.8259V6.98415H12.8259V7.98415ZM15.6255 6.64157C15.6255 6.00077 15.3615 5.40298 14.9035 4.96399L13.5195 6.40778C13.5955 6.48063 13.6255 6.56167 13.6255 6.64157H15.6255ZM14.9035 4.96393C14.4592 4.53809 13.8721 4.299 13.2544 4.299V6.299C13.3505 6.299 13.4433 6.33476 13.5196 6.40785L14.9035 4.96393ZM13.2544 4.299H2.71372V6.299H13.2544V4.299ZM3.71372 5.299V2.92292H1.71372V5.299H3.71372ZM3.71372 2.92292C3.71372 2.73274 3.77993 2.57983 3.87371 2.47749L2.3991 1.12637C1.94778 1.61893 1.71372 2.26231 1.71372 2.92292H3.71372ZM3.87352 2.4777C3.96011 2.38324 4.04533 2.35696 4.11343 2.35696V0.356964C3.44756 0.356964 2.83881 0.646739 2.39929 1.12616L3.87352 2.4777ZM4.11343 2.35696C4.25666 2.35696 4.34002 2.39614 4.38466 2.42882C4.42819 2.46069 4.46906 2.51074 4.49308 2.59684L6.41955 2.05954C6.12715 1.01114 5.20489 0.356964 4.11343 0.356964V2.35696ZM5.45632 1.32819H5.25604V3.32819H5.45632V1.32819ZM5.25604 1.32819C4.46712 1.32819 3.82756 1.96775 3.82756 2.75667H5.82756C5.82756 3.07232 5.57169 3.32819 5.25604 3.32819V1.32819ZM3.82756 2.75667C3.82756 3.54559 4.46712 4.18515 5.25604 4.18515V2.18515C5.57169 2.18515 5.82756 2.44102 5.82756 2.75667H3.82756ZM5.25604 4.18515H6.62719V2.18515H5.25604V4.18515ZM6.62719 4.18515C7.41611 4.18515 8.05567 3.54559 8.05567 2.75667H6.05567C6.05567 2.44102 6.31154 2.18515 6.62719 2.18515V4.18515ZM8.05567 2.75667C8.05567 1.96775 7.41611 1.32819 6.62719 1.32819V3.32819C6.31154 3.32819 6.05567 3.07232 6.05567 2.75667H8.05567ZM6.62719 1.32819H6.33285V3.32819H6.62719V1.32819ZM7.31795 2.15619C7.20186 1.49134 6.89063 0.877037 6.39831 0.401778L5.00925 1.84071C5.17965 2.0052 5.30032 2.22855 5.34775 2.50018L7.31795 2.15619ZM6.3983 0.401765C5.78518 -0.190078 4.96637 -0.5 4.11343 -0.5V1.5C4.4816 1.5 4.79238 1.63136 5.00926 1.84072L6.3983 0.401765ZM4.11343 -0.5C3.21167 -0.5 2.3765 -0.117108 1.76752 0.547181L3.24178 1.89869C3.48765 1.63049 3.79509 1.5 4.11343 1.5V-0.5ZM1.76734 0.547379C1.17412 1.19482 0.856755 2.04226 0.856755 2.92292H2.85675C2.85675 2.52305 2.99958 2.16303 3.24196 1.89849L1.76734 0.547379ZM0.856755 2.92292V5.299H2.85675V2.92292H0.856755ZM1.85675 4.299H1.37114V6.299H1.85675V4.299ZM1.37114 4.299C0.753368 4.299 0.166352 4.53809 -0.277962 4.96393L1.1059 6.40785C1.18217 6.33476 1.27501 6.299 1.37114 6.299V4.299ZM-0.278032 4.96399C-0.735983 5.40298 -1 6.00077 -1 6.64157H1C1 6.56167 1.02998 6.48063 1.10597 6.40778L-0.278032 4.96399ZM-1 6.64157C-1 7.28237 -0.735983 7.88017 -0.278032 8.31915L1.10597 6.87536C1.02998 6.80252 1 6.72148 1 6.64157H-1ZM-0.277941 8.31924C-0.0169756 8.56934 0.293438 8.75485 0.630815 8.86558L1.25451 6.96532C1.20145 6.9479 1.1508 6.91832 1.10588 6.87528L-0.277941 8.31924ZM-0.0573399 7.91545V10.4425H1.94266V7.91545H-0.0573399ZM-0.0573399 10.4425C-0.0573399 12.0971 0.95086 13.5156 2.3791 14.1237L3.1626 12.2836C2.44369 11.9775 1.94266 11.2649 1.94266 10.4425H-0.0573399ZM1.77085 13.2037V13.9543H3.77085V13.2037H1.77085ZM1.77085 13.9543C1.77085 14.7433 2.41041 15.3828 3.19933 15.3828V13.3828C3.51498 13.3828 3.77085 13.6387 3.77085 13.9543H1.77085ZM3.19933 15.3828C3.98825 15.3828 4.62781 14.7433 4.62781 13.9543H2.62781C2.62781 13.6387 2.88368 13.3828 3.19933 13.3828V15.3828ZM4.62781 13.9543V13.4254H2.62781V13.9543H4.62781ZM3.52384 14.42C3.66101 14.4343 3.80052 14.4418 3.94203 14.4418V12.4418C3.87131 12.4418 3.80121 12.4381 3.73178 12.4308L3.52384 14.42ZM3.94203 14.4418H10.6835V12.4418H3.94203V14.4418ZM10.6835 14.4418C10.825 14.4418 10.9645 14.4343 11.1017 14.42L10.8937 12.4308C10.8243 12.4381 10.7542 12.4418 10.6835 12.4418V14.4418ZM9.9977 13.4254V13.9543H11.9977V13.4254H9.9977ZM9.9977 13.9543C9.9977 14.7433 10.6373 15.3828 11.4262 15.3828V13.3828C11.7418 13.3828 11.9977 13.6387 11.9977 13.9543H9.9977ZM11.4262 15.3828C12.2151 15.3828 12.8547 14.7433 12.8547 13.9543H10.8547C10.8547 13.6387 11.1105 13.3828 11.4262 13.3828V15.3828ZM12.8547 13.9543V13.2037H10.8547V13.9543H12.8547ZM12.2464 14.1237C13.6747 13.5156 14.6829 12.0971 14.6829 10.4425H12.6829C12.6829 11.2649 12.1818 11.9775 11.4629 12.2836L12.2464 14.1237ZM14.6829 10.4425V7.91545H12.6829V10.4425H14.6829ZM13.9947 8.86558C14.332 8.75487 14.6425 8.56941 14.9035 8.31917L13.5196 6.87534C13.4747 6.91831 13.4241 6.94788 13.371 6.96532L13.9947 8.86558ZM14.9035 8.31915C15.3615 7.88017 15.6255 7.28237 15.6255 6.64157H13.6255C13.6255 6.72148 13.5955 6.80252 13.5195 6.87536L14.9035 8.31915ZM11.8259 10.4425C11.8259 11.0715 11.3125 11.5849 10.6835 11.5849V13.5849C12.4171 13.5849 13.8259 12.1761 13.8259 10.4425H11.8259ZM10.6835 11.5849H3.94203V13.5849H10.6835V11.5849ZM3.94203 11.5849C3.31299 11.5849 2.79962 11.0715 2.79962 10.4425H0.799624C0.799624 12.1761 2.20842 13.5849 3.94203 13.5849V11.5849ZM2.79962 10.4425V7.98415H0.799624V10.4425H2.79962ZM1.79962 8.98415H12.8259V6.98415H1.79962V8.98415ZM11.8259 7.98415V10.4425H13.8259V7.98415H11.8259ZM13.2544 6.12719H1.37114V8.12719H13.2544V6.12719ZM1.37114 6.12719C1.51024 6.12719 1.62227 6.18289 1.69796 6.25438C1.77291 6.32516 1.85696 6.45615 1.85696 6.64157H-0.143036C-0.143036 7.50562 0.599554 8.12719 1.37114 8.12719V6.12719ZM1.85696 6.64157C1.85696 6.82699 1.77291 6.95798 1.69796 7.02877C1.62227 7.10026 1.51024 7.15596 1.37114 7.15596V5.15596C0.599554 5.15596 -0.143036 5.77753 -0.143036 6.64157H1.85696ZM1.37114 7.15596H13.2544V5.15596H1.37114V7.15596ZM13.2544 7.15596C13.1153 7.15596 13.0032 7.10026 12.9276 7.02877C12.8526 6.95798 12.7686 6.82699 12.7686 6.64157H14.7686C14.7686 5.77753 14.026 5.15596 13.2544 5.15596V7.15596ZM12.7686 6.64157C12.7686 6.45615 12.8526 6.32516 12.9276 6.25438C13.0032 6.18289 13.1153 6.12719 13.2544 6.12719V8.12719C14.026 8.12719 14.7686 7.50562 14.7686 6.64157H12.7686Z" fill="#6B7280" mask="url(#path-1-inside-1_2490:25300)"/>
</svg>
