<svg width="16" height="16" viewBox="0 0 16 16" fill="none" xmlns="http://www.w3.org/2000/svg">
<path d="M15.6255 7.14157C15.6255 6.78122 15.4785 6.44181 15.2115 6.18589C14.9513 5.93643 14.6113 5.799 14.2544 5.799H3.71372V3.42292C3.71372 2.99753 3.86386 2.59938 4.1364 2.30193C4.39946 2.01499 4.74645 1.85696 5.11343 1.85696C5.78557 1.85696 6.29224 2.23988 6.45632 2.82819H6.25604C6.01941 2.82819 5.82756 3.02003 5.82756 3.25667C5.82756 3.49331 6.01941 3.68515 6.25604 3.68515H7.62719C7.86382 3.68515 8.05567 3.49331 8.05567 3.25667C8.05567 3.02003 7.86382 2.82819 7.62719 2.82819H7.33285C7.25109 2.35994 7.03514 1.94112 6.70378 1.62124C6.28878 1.22064 5.72398 1 5.11343 1C4.50338 1 3.93207 1.25669 3.50465 1.72293C3.08685 2.17892 2.85675 2.78266 2.85675 3.42292V5.799H2.37114C2.01419 5.799 1.67426 5.93643 1.41397 6.18589C1.147 6.44181 1 6.78122 1 7.14157C1 7.50193 1.147 7.84134 1.41397 8.09726C1.56691 8.24383 1.74744 8.35138 1.94266 8.41545V10.9425C1.94266 12.181 2.69727 13.2466 3.77085 13.7037V14.4543C3.77085 14.691 3.9627 14.8828 4.19933 14.8828C4.43597 14.8828 4.62781 14.691 4.62781 14.4543V13.9254C4.73111 13.9362 4.83591 13.9418 4.94203 13.9418H11.6835C11.7896 13.9418 11.8944 13.9362 11.9977 13.9254V14.4543C11.9977 14.691 12.1895 14.8828 12.4262 14.8828C12.6628 14.8828 12.8547 14.691 12.8547 14.4543V13.7037C13.9282 13.2466 14.6829 12.181 14.6829 10.9425V8.41545C14.8781 8.35138 15.0586 8.24386 15.2115 8.09726C15.4785 7.84134 15.6255 7.50193 15.6255 7.14157ZM13.8259 10.9425C13.8259 12.1238 12.8648 13.0849 11.6835 13.0849H4.94203C3.76071 13.0849 2.79962 12.1238 2.79962 10.9425V8.48415H13.8259V10.9425ZM14.2544 7.62719H2.37114C2.09723 7.62719 1.85696 7.40026 1.85696 7.14157C1.85696 6.88288 2.09723 6.65596 2.37114 6.65596H14.2544C14.5283 6.65596 14.7686 6.88288 14.7686 7.14157C14.7686 7.40026 14.5283 7.62719 14.2544 7.62719Z" fill="black"/>
</svg>
