<svg width="16" height="16" viewBox="0 0 16 16" fill="none" xmlns="http://www.w3.org/2000/svg">
<path d="M13.7854 7.49027V3.47919C13.7854 2.66356 13.1218 2 12.3062 2H4.11963C3.304 2 2.6405 2.66356 2.6405 3.47919V7.49027C1.70067 7.71635 1 8.5635 1 9.57171V12.5635C1 12.8008 1.19241 12.9932 1.42976 12.9932H2.64047V14.0327C2.64047 14.27 2.83288 14.4624 3.07023 14.4624C3.30758 14.4624 3.49999 14.27 3.49999 14.0327V12.9932H12.9259V14.0327C12.9259 14.27 13.1183 14.4624 13.3556 14.4624C13.593 14.4624 13.7854 14.27 13.7854 14.0327V12.9932H14.9961C15.2334 12.9932 15.4258 12.8008 15.4258 12.5635V9.57171C15.4259 8.5635 14.7252 7.71635 13.7854 7.49027ZM3.50002 3.47919C3.50002 3.13753 3.778 2.85955 4.11963 2.85955H12.3062C12.6479 2.85955 12.9259 3.13753 12.9259 3.47919V7.43059H11.5057V6.75257C11.5057 5.62921 10.5918 4.71531 9.46843 4.71531H6.95753C5.83417 4.71531 4.92027 5.62924 4.92027 6.75257V7.43056H3.50002V3.47919ZM10.6462 6.75257V7.43056H5.77974V6.75257C5.77974 6.10316 6.30806 5.57483 6.95748 5.57483H9.4684C10.1178 5.57481 10.6462 6.10318 10.6462 6.75257ZM1.85952 12.1337V9.57171C1.85952 8.86504 2.43445 8.29012 3.14112 8.29012H13.2847C13.9914 8.29012 14.5663 8.86504 14.5663 9.57171V12.1337H1.85952Z" fill="black"/>
</svg>
