<svg width="16" height="16" viewBox="0 0 16 16" fill="none" xmlns="http://www.w3.org/2000/svg">
<path d="M1.25 1.25H2.75L3.05 2.75M4.25 8.75H11.75L14.75 2.75H3.05M4.25 8.75L3.05 2.75M4.25 8.75L2.53033 10.4697C2.05786 10.9421 2.39248 11.75 3.06066 11.75H11.75M11.75 11.75C10.9216 11.75 10.25 12.4216 10.25 13.25C10.25 14.0784 10.9216 14.75 11.75 14.75C12.5784 14.75 13.25 14.0784 13.25 13.25C13.25 12.4216 12.5784 11.75 11.75 11.75ZM5.75 13.25C5.75 14.0784 5.07843 14.75 4.25 14.75C3.42157 14.75 2.75 14.0784 2.75 13.25C2.75 12.4216 3.42157 11.75 4.25 11.75C5.07843 11.75 5.75 12.4216 5.75 13.25Z" stroke="#2C2F3E" stroke-linecap="round" stroke-linejoin="round"/>
</svg>
