<svg width="18" height="17" viewBox="0 0 18 17" fill="none" xmlns="http://www.w3.org/2000/svg">
<path d="M9 3.09156L8.19365 2.26275C6.29877 0.315075 2.82841 0.987407 1.5754 3.43445C0.986101 4.58531 0.853594 6.24652 1.92858 8.36727C2.9639 10.4098 5.11613 12.8548 9 15.5189C12.8839 12.8548 15.0361 10.4098 16.0714 8.36727C17.1464 6.24652 17.0139 4.58531 16.4246 3.43445C15.1716 0.987407 11.7012 0.315075 9.80635 2.26275L9 3.09156ZM9 16.875C-8.24977 5.47696 3.6886 -3.42098 8.80236 1.28597C8.86944 1.34771 8.93535 1.4118 9 1.47825C9.06465 1.4118 9.13056 1.34772 9.19763 1.28598C14.3114 -3.42099 26.2498 5.47695 9 16.875Z" fill="white"/>
</svg>
