<svg width="122" height="40" viewBox="0 0 122 40" fill="none" xmlns="http://www.w3.org/2000/svg">
<path d="M21.3778 11.1936C21.3778 12.9798 19.9225 14.431 18.1313 14.431C16.3401 14.431 14.8848 12.9848 14.8848 11.1936C14.8848 9.40752 16.3401 7.9563 18.1313 7.9563C19.9276 7.96137 21.3778 9.40752 21.3778 11.1936Z" fill="white"/>
<path d="M35.8236 15.7909C35.5285 15.0806 35.101 14.4463 34.5515 13.9033L22.2371 1.68971C21.1431 0.598757 19.6826 0 18.1357 0C16.5888 0 15.1284 0.598757 14.0292 1.68971L1.71485 13.9033C1.17037 14.4463 0.742933 15.0806 0.442707 15.7909C0.152658 16.5013 0 17.2472 0 18.0185V34.1951C0 37.3969 2.61044 40 5.82134 40C7.77027 40 10.05 39.7615 12.0752 39.3404C14.6144 38.8177 16.6855 38.0211 18.0797 37.0468C19.9116 38.4574 27.3562 40 30.445 40C33.6559 40 36.2663 37.3969 36.2663 34.1951V18.0185C36.2663 17.2472 36.1188 16.5013 35.8236 15.7909ZM13.8867 20.7637C14.6042 19.5103 15.7492 18.0743 18.3036 18.0743C19.6267 18.0743 20.7156 18.5158 21.5247 19.3936C22.9139 20.8905 23.1378 23.1942 23.0615 24.1989C22.7561 28.2836 19.5351 33.0128 18.8939 33.916L18.7871 34.0682L20.0134 35.2911L20.1457 35.1034C20.3594 34.8091 23.3108 30.1307 24.0843 28.2329C24.8883 26.2438 25.1427 24.1076 24.817 22.0424C24.527 20.2055 23.7281 18.7289 22.4356 17.6481C21.428 16.8058 20.0338 16.3796 18.2935 16.3796C16.9246 16.3796 15.6983 16.7144 14.6399 17.3792C13.7036 17.9627 12.9301 18.7847 12.3398 19.8199C11.5918 21.1239 11.5918 22.6513 11.5918 23.4733C11.5918 24.5947 11.8768 25.9495 12.4416 27.5022C12.8894 28.7353 13.5153 30.0951 14.2938 31.5464C15.3981 33.5963 16.5175 35.2607 16.8737 35.7732C14.1056 37.5898 8.6455 38.0769 5.80607 38.0769C3.67905 38.0718 1.93366 36.3313 1.93366 34.1951V18.0185C1.93366 16.9935 2.35093 15.9939 3.07859 15.2683L15.393 3.05467C16.9043 1.55271 19.3671 1.55271 20.8785 3.05467L33.1928 15.2683C33.9205 15.9888 34.3378 16.9935 34.3378 18.0185V34.1951C34.3378 36.3313 32.5924 38.0718 30.4501 38.0718C27.7938 38.0718 21.3924 37.0214 19.2501 35.5245C17.5556 34.0987 13.8257 27.9437 13.3524 23.5596C13.271 22.8035 13.3677 21.672 13.8867 20.7637Z" fill="white"/>
<path d="M45.7314 16.4404C47.0341 15.1008 48.6777 14.431 50.6521 14.431C52.6264 14.431 54.1632 15.0349 55.2572 16.2374V14.7152H58.5088V27.4311C58.5088 29.6486 57.8219 31.3738 56.453 32.5967C55.0791 33.8196 53.3134 34.4335 51.1456 34.4335C49.7463 34.4335 48.4334 34.1646 47.2173 33.6318C46.0011 33.094 45.0241 32.3785 44.2964 31.4804L46.4845 29.3847C47.7109 30.7801 49.268 31.4804 51.1456 31.4804C52.2957 31.4804 53.2523 31.1759 54.0105 30.5619C54.7687 29.9479 55.1453 29.0701 55.1453 27.9233V26.6294C54.0716 27.7407 52.5755 28.2938 50.6571 28.2938C48.6828 28.2938 47.0392 27.629 45.7365 26.2996C44.4338 24.9702 43.7774 23.3312 43.7774 21.3776C43.7723 19.424 44.4236 17.78 45.7314 16.4404ZM48.3775 24.1329C49.1051 24.8585 50.0363 25.2239 51.1711 25.2239C52.3974 25.2239 53.3694 24.8687 54.0767 24.1634C54.784 23.458 55.1402 22.5295 55.1402 21.3776C55.1402 20.2308 54.784 19.2972 54.0767 18.5817C53.3643 17.8663 52.3974 17.506 51.1711 17.506C50.0363 17.506 49.1051 17.8713 48.3673 18.597C47.6294 19.3226 47.258 20.2511 47.258 21.3827C47.2529 22.4889 47.6294 23.4073 48.3775 24.1329Z" fill="white"/>
<path d="M61.1547 14.7202H64.5793V22.3823C64.5793 23.4529 64.8236 24.2597 65.3121 24.8078C65.8006 25.3558 66.4875 25.6247 67.3679 25.6247C68.3245 25.6247 69.098 25.3152 69.6832 24.6911C70.2684 24.072 70.5584 23.1282 70.5584 21.8647V14.7202H73.983V28.4105H70.7009V26.9744C69.6628 28.1212 68.2533 28.6946 66.4723 28.6946C64.8388 28.6946 63.5463 28.172 62.5846 27.1317C61.6229 26.0915 61.1445 24.6606 61.1445 22.839V14.7202H61.1547Z" fill="white"/>
<path d="M75.1426 14.7202H78.9132L82.8009 22.9861L86.714 14.7202H90.3982L80.8113 34.1493H77.1577L81.0148 26.5736L75.1426 14.7202Z" fill="white"/>
<path d="M91.4023 14.7202H94.827V22.3823C94.827 23.4529 95.0712 24.2597 95.5597 24.8078C96.0482 25.3558 96.7352 25.6247 97.6155 25.6247C98.5722 25.6247 99.3456 25.3152 99.9308 24.6911C100.516 24.072 100.806 23.1282 100.806 21.8647V14.7202H104.231V28.4105H100.959V26.9744C99.9206 28.1212 98.5111 28.6946 96.7301 28.6946C95.0967 28.6946 93.8042 28.172 92.8424 27.1317C91.8807 26.0915 91.4023 24.6606 91.4023 22.839V14.7202Z" fill="white"/>
<path d="M110.427 8.60583V16.1258C111.5 14.9993 112.976 14.431 114.859 14.431C116.833 14.431 118.482 15.1211 119.795 16.4962C121.107 17.8714 121.764 19.5661 121.764 21.5755C121.764 23.5646 121.107 25.2493 119.795 26.6244C118.482 27.9995 116.833 28.6896 114.859 28.6896C112.884 28.6896 111.348 28.0705 110.254 26.8223V28.4003H107.002V8.60583H110.427ZM111.46 24.478C112.152 25.2442 113.108 25.6248 114.34 25.6248C115.469 25.6248 116.411 25.2442 117.159 24.478C117.907 23.7118 118.283 22.7477 118.283 21.5806C118.283 20.4135 117.907 19.4444 117.159 18.668C116.411 17.8916 115.469 17.506 114.34 17.506C113.113 17.506 112.146 17.8815 111.449 18.6376C110.747 19.3936 110.401 20.3729 110.401 21.5806C110.396 22.7629 110.752 23.7321 111.46 24.478Z" fill="white"/>
</svg>
