<svg width="18" height="19" viewBox="0 0 18 19" fill="none" xmlns="http://www.w3.org/2000/svg">
<path d="M7.20273 7.34541C7.20273 8.09099 6.59832 8.69541 5.85273 8.69541C5.10715 8.69541 4.50273 8.09099 4.50273 7.34541C4.50273 6.59983 5.10715 5.99541 5.85273 5.99541C6.59832 5.99541 7.20273 6.59983 7.20273 7.34541Z" fill="#343A40"/>
<path d="M3.60273 3.29541C2.60862 3.29541 1.80273 4.1013 1.80273 5.09541V14.0954C1.80273 15.0895 2.60862 15.8954 3.60273 15.8954H14.4027C15.3968 15.8954 16.2027 15.0895 16.2027 14.0954V5.09541C16.2027 4.1013 15.3968 3.29541 14.4027 3.29541H3.60273ZM14.4027 4.19541C14.8998 4.19541 15.3027 4.59835 15.3027 5.09541V10.9454L11.904 9.19293C11.7307 9.10631 11.5215 9.14026 11.3845 9.27722L8.0454 12.6164L5.65235 11.021C5.47387 10.902 5.23622 10.9255 5.08454 11.0772L2.70273 13.1954V5.09541C2.70273 4.59835 3.10568 4.19541 3.60273 4.19541H14.4027Z" fill="#343A40"/>
</svg>
