<svg width="36" height="36" viewBox="0 0 36 36" fill="none" xmlns="http://www.w3.org/2000/svg">
<circle cx="18" cy="18" r="18" fill="#2C2F3E"/>
<path d="M12.1451 13.8395C13.0806 13.8395 13.839 13.0811 13.839 12.1456C13.839 11.2101 13.0806 10.4517 12.1451 10.4517C11.2096 10.4517 10.4512 11.2101 10.4512 12.1456C10.4512 13.0811 11.2096 13.8395 12.1451 13.8395Z" fill="white"/>
<path d="M15.4387 15.1226V24.5206H18.3566V19.8731C18.3566 18.6468 18.5873 17.4592 20.1079 17.4592C21.6075 17.4592 21.626 18.8612 21.626 19.9505V24.5214H24.5455V19.3675C24.5455 16.8359 24.0005 14.8904 21.0415 14.8904C19.6209 14.8904 18.6686 15.67 18.2792 16.4078H18.2397V15.1226H15.4387V15.1226ZM10.6836 15.1226H13.6062V24.5206H10.6836V15.1226Z" fill="white"/>
</svg>
