<svg width="14" height="14" viewBox="0 0 14 14" fill="none" xmlns="http://www.w3.org/2000/svg">
<path fill-rule="evenodd" clip-rule="evenodd" d="M2.09028 0.68122C2.71644 0.0550612 3.7497 0.11939 4.29336 0.818379L5.8068 2.76423C6.08453 3.12131 6.18267 3.58626 6.07295 4.02513L5.6112 5.87215C5.56245 6.06715 5.61958 6.27343 5.76171 6.41555L7.83445 8.48829C7.97658 8.63042 8.18285 8.68755 8.37785 8.63881L10.2249 8.17705C10.6637 8.06733 11.1287 8.16547 11.4858 8.44321L13.4316 9.95664C14.1306 10.5003 14.1949 11.5336 13.5688 12.1597L12.6964 13.0321C12.0723 13.6562 11.1387 13.9303 10.2687 13.6244C8.10855 12.865 6.08089 11.6216 4.35466 9.89534C2.62844 8.16911 1.38505 6.14145 0.625582 3.98127C0.319706 3.11126 0.593766 2.17773 1.2179 1.55359L2.09028 0.68122Z" fill="#2C2F3E"/>
</svg>
