<svg width="80" height="80" viewBox="0 0 80 80" fill="none" xmlns="http://www.w3.org/2000/svg">
<path fill-rule="evenodd" clip-rule="evenodd" d="M36.7068 39.15H43.4445C47.6308 39.15 51.0244 42.575 51.0244 46.8V64.9334C51.0244 69.1583 47.6308 72.5834 43.4445 72.5834H36.7068C32.5206 72.5834 29.127 69.1583 29.127 64.9334V46.8C29.127 42.5751 32.5206 39.15 36.7068 39.15ZM36.7068 43.4C34.8463 43.4 33.338 44.9223 33.338 46.8V64.9334C33.338 66.8111 34.8463 68.3334 36.7068 68.3334H43.4445C45.3051 68.3334 46.8134 66.8111 46.8134 64.9334V46.8C46.8134 44.9223 45.3051 43.4 43.4445 43.4H36.7068Z" fill="#01ADB9"/>
<path d="M63.767 45.4327C63.767 44.1474 64.7991 43.1055 66.0729 43.1055C67.3464 43.1055 68.3788 44.1474 68.3788 45.4327V71.6727C68.3788 72.958 67.3467 74 66.0729 74H48.7408H31.4068H14.0735C12.7997 74 11.7676 72.958 11.7676 71.6727V45.4327C11.7676 44.1474 12.7997 43.1055 14.0735 43.1055C15.3473 43.1055 16.3794 44.1474 16.3794 45.4327V69.3455H29.1009H51.0467H63.767V45.4327Z" fill="#2C2F3E"/>
<path d="M78.4738 43.7888L41.7035 6.68153C40.8033 5.77267 39.3432 5.77298 38.4423 6.68153L1.6754 43.7888C0.774867 44.6977 0.774867 46.1713 1.6754 47.0798C2.57624 47.9887 4.03604 47.9887 4.93657 47.0798L40.0731 11.6184L75.213 47.0802C75.6631 47.5344 76.2534 47.7616 76.8434 47.7616C77.4334 47.7616 78.0237 47.5344 78.4741 47.0798C79.3743 46.1713 79.3744 44.6977 78.4738 43.7888Z" fill="#2C2F3E"/>
</svg>
