<svg width="18" height="18" viewBox="0 0 18 18" fill="none" xmlns="http://www.w3.org/2000/svg">
<path d="M12.375 2.8125C12.375 1.2592 13.6342 0 15.1875 0C16.7408 0 18 1.2592 18 2.8125C18 4.3658 16.7408 5.625 15.1875 5.625C14.3337 5.625 13.5687 5.24454 13.0529 4.64392L5.49561 8.15423C5.57967 8.42117 5.625 8.70529 5.625 9C5.625 9.29471 5.57967 9.57883 5.49561 9.84577L13.0529 13.3561C13.5687 12.7555 14.3337 12.375 15.1875 12.375C16.7408 12.375 18 13.6342 18 15.1875C18 16.7408 16.7408 18 15.1875 18C13.6342 18 12.375 16.7408 12.375 15.1875C12.375 14.8928 12.4203 14.6087 12.5044 14.3417L4.94706 10.8314C4.43126 11.432 3.66631 11.8125 2.8125 11.8125C1.2592 11.8125 0 10.5533 0 9C0 7.4467 1.2592 6.1875 2.8125 6.1875C3.66631 6.1875 4.43126 6.56796 4.94706 7.16858L12.5044 3.65827C12.4203 3.39133 12.375 3.10721 12.375 2.8125Z" fill="#2C2F3E"/>
</svg>
