<svg width="17" height="16" viewBox="0 0 17 16" fill="none" xmlns="http://www.w3.org/2000/svg">
<path d="M2.86652 14.8508C2.78872 15.2942 3.22629 15.6413 3.61273 15.4427L8.00195 13.1868L12.3912 15.4427C12.7776 15.6413 13.2152 15.2942 13.1374 14.8508L12.3077 10.1213L15.83 6.76462C16.1592 6.45092 15.9888 5.87737 15.5478 5.81472L10.6493 5.11885L8.46519 0.792305C8.26844 0.402565 7.73547 0.402565 7.53872 0.792305L5.3546 5.11885L0.456125 5.81472C0.0151358 5.87737 -0.155264 6.45092 0.173916 6.76462L3.69625 10.1213L2.86652 14.8508ZM7.77112 12.0826L4.08537 13.977L4.77963 10.0197C4.81235 9.83316 4.75082 9.64214 4.61688 9.5145L1.71004 6.7444L5.76235 6.16873C5.92987 6.14494 6.07613 6.03795 6.15516 5.88141L8.00195 2.22308L9.84875 5.88141C9.92777 6.03795 10.074 6.14494 10.2416 6.16873L14.2939 6.7444L11.387 9.5145C11.2531 9.64214 11.1916 9.83316 11.2243 10.0197L11.9185 13.977L8.23278 12.0826C8.08719 12.0078 7.91672 12.0078 7.77112 12.0826Z" fill="#343A40"/>
</svg>
