<svg width="18" height="19" viewBox="0 0 18 19" fill="none" xmlns="http://www.w3.org/2000/svg">
<path d="M1.80078 5.9958C1.80078 5.00169 2.60667 4.1958 3.60078 4.1958H9.00078C9.99489 4.1958 10.8008 5.00169 10.8008 5.9958V13.1958C10.8008 14.1899 9.99489 14.9958 9.00078 14.9958H3.60078C2.60667 14.9958 1.80078 14.1899 1.80078 13.1958V5.9958Z" fill="#111827"/>
<path d="M13.0983 6.99082C12.7934 7.14327 12.6008 7.45491 12.6008 7.7958V11.3958C12.6008 11.7367 12.7934 12.0483 13.0983 12.2008L14.8983 13.1008C15.1773 13.2403 15.5086 13.2254 15.7739 13.0614C16.0393 12.8974 16.2008 12.6077 16.2008 12.2958V6.8958C16.2008 6.58388 16.0393 6.2942 15.7739 6.13022C15.5086 5.96623 15.1773 5.95132 14.8983 6.09082L13.0983 6.99082Z" fill="#111827"/>
</svg>
