<svg width="17" height="18" viewBox="0 0 17 18" fill="none" xmlns="http://www.w3.org/2000/svg">
<g clip-path="url(#clip0_2548:7829)">
<path d="M8.75206 0.75H8.74794C4.19909 0.75 0.5 4.45012 0.5 9C0.5 10.8047 1.08162 12.4774 2.07059 13.8355L1.04244 16.9004L4.21353 15.8867C5.51806 16.7509 7.07422 17.25 8.75206 17.25C13.3009 17.25 17 13.5488 17 9C17 4.45116 13.3009 0.75 8.75206 0.75Z" fill="#4CAF50"/>
<path d="M13.5528 12.4001C13.3538 12.9622 12.5638 13.4283 11.9337 13.5644C11.5027 13.6562 10.9396 13.7294 9.04419 12.9436C6.61972 11.9392 5.05841 9.4755 4.93672 9.31566C4.82019 9.15582 3.95703 8.01113 3.95703 6.82725C3.95703 5.64338 4.55825 5.06691 4.80059 4.81941C4.99963 4.61625 5.32859 4.52344 5.64416 4.52344C5.74625 4.52344 5.83803 4.52859 5.92053 4.53272C6.16287 4.54303 6.28456 4.55747 6.44441 4.94006C6.64344 5.41959 7.12812 6.60347 7.18587 6.72516C7.24466 6.84685 7.30344 7.01185 7.22094 7.17169C7.14359 7.33669 7.07553 7.40991 6.95384 7.55016C6.83216 7.69041 6.71666 7.79766 6.59497 7.94822C6.48359 8.07919 6.35778 8.21944 6.49803 8.46179C6.63828 8.69897 7.12297 9.48994 7.83659 10.1252C8.7575 10.945 9.50412 11.207 9.77122 11.3184C9.97025 11.4009 10.2074 11.3813 10.3528 11.2266C10.5374 11.0275 10.7653 10.6975 10.9974 10.3727C11.1624 10.1396 11.3707 10.1108 11.5893 10.1933C11.8121 10.2706 12.9908 10.8533 13.2331 10.9739C13.4755 11.0956 13.6353 11.1534 13.6941 11.2554C13.7518 11.3575 13.7518 11.8371 13.5528 12.4001Z" fill="#FAFAFA"/>
</g>
<defs>
<clipPath id="clip0_2548:7829">
<rect width="16.5" height="16.5" fill="white" transform="translate(0.5 0.75)"/>
</clipPath>
</defs>
</svg>
