<svg width="36" height="36" viewBox="0 0 36 36" fill="none" xmlns="http://www.w3.org/2000/svg">
<circle cx="18" cy="18" r="18" fill="#2C2F3E"/>
<path fill-rule="evenodd" clip-rule="evenodd" d="M13.5891 8.18465C14.5798 8.13904 14.8956 8.12891 17.4192 8.12891C19.9428 8.12891 20.2587 8.13989 21.2485 8.18465C22.2384 8.22941 22.914 8.38735 23.5052 8.61623C24.1243 8.85017 24.6859 9.21587 25.1505 9.68884C25.6234 10.1525 25.9883 10.7133 26.2214 11.3332C26.4511 11.9244 26.6082 12.6001 26.6538 13.5882C26.6994 14.5806 26.7096 14.8965 26.7096 17.4192C26.7096 19.9428 26.6986 20.2587 26.6538 21.2494C26.609 22.2375 26.4511 22.9132 26.2214 23.5044C25.9883 24.1244 25.6228 24.6861 25.1505 25.1505C24.6859 25.6234 24.1243 25.9883 23.5052 26.2214C22.914 26.4511 22.2384 26.6082 21.2502 26.6538C20.2587 26.6994 19.9428 26.7096 17.4192 26.7096C14.8956 26.7096 14.5798 26.6986 13.5891 26.6538C12.6009 26.609 11.9253 26.4511 11.3341 26.2214C10.7141 25.9883 10.1524 25.6228 9.68799 25.1505C9.21535 24.6865 8.84959 24.1251 8.61623 23.5052C8.38735 22.914 8.23026 22.2384 8.18465 21.2502C8.13904 20.2578 8.12891 19.942 8.12891 17.4192C8.12891 14.8956 8.13989 14.5798 8.18465 13.5899C8.22941 12.6001 8.38735 11.9244 8.61623 11.3332C8.84994 10.7134 9.21597 10.1519 9.68884 9.68799C10.1525 9.21545 10.7137 8.8497 11.3332 8.61623C11.9244 8.38735 12.6001 8.23026 13.5882 8.18465H13.5891ZM21.1734 9.85691C20.1937 9.81214 19.8997 9.80285 17.4192 9.80285C14.9387 9.80285 14.6448 9.81214 13.6651 9.85691C12.7589 9.89829 12.2673 10.0495 11.9396 10.177C11.5064 10.3459 11.1964 10.5461 10.8712 10.8712C10.563 11.1711 10.3258 11.5362 10.177 11.9396C10.0495 12.2673 9.89829 12.7589 9.85691 13.6651C9.81214 14.6448 9.80285 14.9387 9.80285 17.4192C9.80285 19.8997 9.81214 20.1937 9.85691 21.1734C9.89829 22.0796 10.0495 22.5711 10.177 22.8988C10.3256 23.3017 10.563 23.6674 10.8712 23.9672C11.1711 24.2755 11.5368 24.5128 11.9396 24.6615C12.2673 24.789 12.7589 24.9402 13.6651 24.9816C14.6448 25.0263 14.9379 25.0356 17.4192 25.0356C19.9006 25.0356 20.1937 25.0263 21.1734 24.9816C22.0796 24.9402 22.5711 24.789 22.8988 24.6615C23.3321 24.4925 23.6421 24.2924 23.9672 23.9672C24.2755 23.6674 24.5128 23.3017 24.6615 22.8988C24.789 22.5711 24.9402 22.0796 24.9816 21.1734C25.0263 20.1937 25.0356 19.8997 25.0356 17.4192C25.0356 14.9387 25.0263 14.6448 24.9816 13.6651C24.9402 12.7589 24.789 12.2673 24.6615 11.9396C24.4925 11.5064 24.2924 11.1964 23.9672 10.8712C23.6673 10.563 23.3023 10.3258 22.8988 10.177C22.5711 10.0495 22.0796 9.89829 21.1734 9.85691V9.85691ZM16.2326 20.2832C16.8953 20.559 17.6332 20.5963 18.3203 20.3885C19.0074 20.1808 19.6011 19.7409 19.9999 19.1441C20.3987 18.5472 20.578 17.8304 20.507 17.1161C20.4361 16.4018 20.1193 15.7343 19.6109 15.2276C19.2868 14.9036 18.8949 14.6556 18.4634 14.5013C18.0319 14.3471 17.5716 14.2904 17.1156 14.3354C16.6596 14.3803 16.2192 14.5259 15.8262 14.7615C15.4332 14.9971 15.0973 15.3169 14.8427 15.6979C14.5881 16.0789 14.4211 16.5116 14.3539 16.9648C14.2866 17.4181 14.3206 17.8806 14.4535 18.3191C14.5865 18.7577 14.815 19.1613 15.1226 19.5009C15.4302 19.8405 15.8093 20.1077 16.2326 20.2832ZM14.0426 14.0426C14.486 13.5992 15.0125 13.2475 15.5918 13.0075C16.1712 12.7675 16.7921 12.644 17.4192 12.644C18.0463 12.644 18.6673 12.7675 19.2466 13.0075C19.826 13.2475 20.3524 13.5992 20.7958 14.0426C21.2393 14.486 21.591 15.0125 21.831 15.5918C22.071 16.1712 22.1945 16.7921 22.1945 17.4192C22.1945 18.0463 22.071 18.6673 21.831 19.2466C21.591 19.826 21.2393 20.3524 20.7958 20.7958C19.9003 21.6914 18.6857 22.1945 17.4192 22.1945C16.1528 22.1945 14.9382 21.6914 14.0426 20.7958C13.1471 19.9003 12.644 18.6857 12.644 17.4192C12.644 16.1528 13.1471 14.9382 14.0426 14.0426V14.0426ZM23.2536 13.3551C23.3634 13.2515 23.4514 13.1268 23.5122 12.9886C23.5731 12.8503 23.6056 12.7012 23.6078 12.5502C23.61 12.3992 23.5819 12.2492 23.5251 12.1092C23.4683 11.9692 23.384 11.8421 23.2772 11.7353C23.1704 11.6285 23.0432 11.5442 22.9032 11.4874C22.7632 11.4306 22.6133 11.4025 22.4622 11.4047C22.3112 11.4069 22.1621 11.4393 22.0239 11.5002C21.8856 11.561 21.761 11.649 21.6573 11.7589C21.4557 11.9726 21.3453 12.2564 21.3496 12.5502C21.3539 12.8439 21.4725 13.1245 21.6802 13.3322C21.888 13.5399 22.1685 13.6585 22.4622 13.6628C22.756 13.6671 23.0398 13.5567 23.2536 13.3551V13.3551Z" fill="white"/>
</svg>
