<svg width="36" height="36" viewBox="0 0 36 36" fill="none" xmlns="http://www.w3.org/2000/svg">
<circle cx="18" cy="18" r="18" fill="#2C2F3E"/>
<path d="M29.0313 17.3493C29.0313 17.2942 29.0313 17.2317 29.0289 17.1591C29.0264 16.9564 29.0215 16.7288 29.0165 16.4861C28.9968 15.788 28.9624 15.0924 28.9082 14.4369C28.8343 13.5337 28.726 12.7806 28.5782 12.2151C28.4223 11.625 28.1166 11.0868 27.6919 10.6544C27.2671 10.2219 26.738 9.91027 26.1575 9.75065C25.4606 9.5605 24.0963 9.44291 22.1756 9.37035C21.2619 9.33532 20.2843 9.3128 19.3067 9.30029C18.9644 9.29529 18.6467 9.29279 18.3611 9.29028H17.6371C17.3514 9.29279 17.0337 9.29529 16.6914 9.30029C15.7138 9.3128 14.7362 9.33532 13.8226 9.37035C11.9018 9.44541 10.535 9.563 9.8406 9.75065C9.25993 9.90988 8.73065 10.2214 8.3058 10.6539C7.88094 11.0864 7.57544 11.6248 7.41991 12.2151C7.26969 12.7806 7.1638 13.5337 7.08992 14.4369C7.03575 15.0924 7.00127 15.788 6.98157 16.4861C6.97418 16.7288 6.97172 16.9564 6.96926 17.1591C6.96926 17.2317 6.9668 17.2942 6.9668 17.3493V17.4894C6.9668 17.5444 6.9668 17.607 6.96926 17.6795C6.97172 17.8822 6.97665 18.1099 6.98157 18.3526C7.00127 19.0506 7.03575 19.7462 7.08992 20.4017C7.1638 21.3049 7.27215 22.058 7.41991 22.6235C7.73511 23.822 8.66104 24.7677 9.8406 25.088C10.535 25.2781 11.9018 25.3957 13.8226 25.4683C14.7362 25.5033 15.7138 25.5258 16.6914 25.5383C17.0337 25.5433 17.3514 25.5458 17.6371 25.5483H18.3611C18.6467 25.5458 18.9644 25.5433 19.3067 25.5383C20.2843 25.5258 21.2619 25.5033 22.1756 25.4683C24.0963 25.3932 25.4631 25.2756 26.1575 25.088C27.3371 24.7677 28.263 23.8245 28.5782 22.6235C28.7284 22.058 28.8343 21.3049 28.9082 20.4017C28.9624 19.7462 28.9968 19.0506 29.0165 18.3526C29.0239 18.1099 29.0264 17.8822 29.0289 17.6795C29.0289 17.607 29.0313 17.5444 29.0313 17.4894V17.3493V17.3493ZM27.2583 17.4794C27.2583 17.5319 27.2583 17.5895 27.2558 17.657C27.2533 17.8522 27.2484 18.0673 27.2435 18.3C27.2263 18.9656 27.1918 19.6311 27.1401 20.2491C27.0736 21.0547 26.98 21.7153 26.8643 22.1581C26.7116 22.7361 26.2634 23.194 25.697 23.3466C25.1799 23.4867 23.8772 23.5993 22.1066 23.6668C21.2102 23.7019 20.2449 23.7244 19.282 23.7369C18.9447 23.7419 18.6319 23.7444 18.3512 23.7444H17.6469L16.7161 23.7369C15.7532 23.7244 14.7903 23.7019 13.8915 23.6668C12.1209 23.5968 10.8158 23.4867 10.3011 23.3466C9.73471 23.1915 9.28653 22.7361 9.13385 22.1581C9.01811 21.7153 8.92453 21.0547 8.85804 20.2491C8.80633 19.6311 8.77431 18.9656 8.75461 18.3C8.74723 18.0673 8.74476 17.8497 8.7423 17.657C8.7423 17.5895 8.73984 17.5294 8.73984 17.4794V17.3593C8.73984 17.3067 8.73984 17.2492 8.7423 17.1816C8.74476 16.9865 8.74969 16.7713 8.75461 16.5386C8.77185 15.8731 8.80633 15.2075 8.85804 14.5895C8.92453 13.7839 9.01811 13.1234 9.13385 12.6805C9.28653 12.1025 9.73471 11.6447 10.3011 11.4921C10.8182 11.3519 12.1209 11.2393 13.8915 11.1718C14.7879 11.1368 15.7532 11.1142 16.7161 11.1017C17.0534 11.0967 17.3662 11.0942 17.6469 11.0942H18.3512L19.282 11.1017C20.2449 11.1142 21.2078 11.1368 22.1066 11.1718C23.8772 11.2419 25.1823 11.3519 25.697 11.4921C26.2634 11.6472 26.7116 12.1025 26.8643 12.6805C26.98 13.1234 27.0736 13.7839 27.1401 14.5895C27.1918 15.2075 27.2238 15.8731 27.2435 16.5386C27.2509 16.7713 27.2533 16.989 27.2558 17.1816C27.2558 17.2492 27.2583 17.3092 27.2583 17.3593V17.4794ZM15.8074 20.772L21.5205 17.3943L15.8074 14.0666V20.772Z" fill="white"/>
</svg>
